<?xml version="1.0" encoding="iso-8859-1"?>
<!-- Generator: Adobe Illustrator 19.0.0, SVG Export Plug-In . SVG Version: 6.00 Build 0)  -->
<svg version="1.1" id="Layer_1" xmlns="http://www.w3.org/2000/svg" xmlns:xlink="http://www.w3.org/1999/xlink" x="0px" y="0px"
	 viewBox="0 0 496 496" style="enable-background:new 0 0 496 496;" xml:space="preserve">
<g>
	<g>
		<g>
			<path d="M456,0H40C17.944,0,0,17.944,0,40v416c0,22.056,17.944,40,40,40h416c22.056,0,40-17.944,40-40V40
				C496,17.944,478.056,0,456,0z M288,144h45.176l1.456,1.176C316.016,159.832,304,182.52,304,208s12.016,48.168,30.64,62.824
				L333.176,272H288V144z M359.176,149.016c5.28-2.232,10.936-3.72,16.816-4.456V160h16v-15.448
				c5.88,0.736,11.536,2.224,16.816,4.456l-7.752,13.416l13.856,8l7.704-13.336c4.632,3.52,8.752,7.648,12.28,12.28l-13.336,7.696
				l8,13.856l13.416-7.752c2.232,5.28,3.72,10.936,4.456,16.816H432v16h15.44c-0.736,5.888-2.224,11.536-4.456,16.816l-13.416-7.752
				l-8,13.856l13.336,7.696c-3.52,4.632-7.648,8.752-12.28,12.28l-7.704-13.336l-13.856,8l7.752,13.416
				c-5.28,2.232-10.936,3.72-16.816,4.456V256h-16v15.448c-5.888-0.736-11.536-2.224-16.816-4.456l7.752-13.416l-13.856-8
				l-7.696,13.336c-4.632-3.52-8.752-7.648-12.28-12.28l13.336-7.696l-8-13.856l-13.416,7.752c-2.232-5.28-3.72-10.936-4.456-16.816
				H336v-16h-15.448c0.736-5.888,2.224-11.536,4.456-16.816l13.416,7.752l8-13.856l-13.336-7.696
				c3.52-4.632,7.648-8.752,12.28-12.28l7.704,13.312l13.856-8L359.176,149.016z M288,320h45.176l1.456,1.176
				C316.016,335.832,304,358.52,304,384c0,25.48,12.016,48.168,30.64,62.824L333.176,448H288V320z M359.168,325.008
				c5.28-2.232,10.936-3.72,16.816-4.456V336h16v-15.448c5.88,0.736,11.536,2.224,16.816,4.456l-7.752,13.416l13.856,8l7.704-13.336
				c4.632,3.52,8.752,7.648,12.28,12.28l-13.336,7.704l8,13.856l13.416-7.744c2.232,5.28,3.72,10.936,4.456,16.816H432v16h15.44
				c-0.736,5.888-2.224,11.536-4.456,16.816l-13.416-7.744l-8,13.856l13.336,7.704c-3.52,4.632-7.648,8.752-12.28,12.28
				l-7.704-13.336l-13.856,8l7.752,13.416c-5.28,2.232-10.936,3.72-16.816,4.456V432h-16v15.448
				c-5.888-0.736-11.536-2.224-16.816-4.456l7.752-13.416l-13.856-8l-7.696,13.336c-4.632-3.52-8.752-7.648-12.28-12.28
				l13.336-7.704l-8-13.856l-13.416,7.744c-2.232-5.28-3.72-10.936-4.456-16.816H336v-16h-15.448
				c0.736-5.888,2.224-11.536,4.456-16.816l13.416,7.744l8-13.856l-13.336-7.704c3.52-4.632,7.648-8.752,12.28-12.28l7.696,13.336
				l13.856-8L359.168,325.008z M88,16h112v16.752c-14.016,2.384-26.36,10.84-33.528,23.248h-44.936
				C114.36,43.592,102.016,35.136,88,32.752V16z M109.296,67.208L111.392,72h65.216l2.096-4.792C183.816,55.536,195.312,48,208,48
				c17.648,0,32,14.352,32,32s-14.352,32-32,32c-12.688,0-24.184-7.536-29.296-19.208L176.608,88h-65.216l-2.096,4.792
				C104.184,104.464,92.688,112,80,112c-17.648,0-32-14.352-32-32s14.352-32,32-32C92.688,48,104.184,55.536,109.296,67.208z M16,40
				c0-13.232,10.768-24,24-24h32v16.72C49.336,36.552,32,56.264,32,80c0,26.472,21.528,48,48,48c17.24,0,33.016-9.264,41.528-24H136
				v40H16V40z M16,160h168v32h-24v24H64c-14.872,0-27.288,10.232-30.864,24H16V160z M208,208v80h-32v-80H208z M160,232v32H64
				c-8.824,0-16-7.176-16-16c0-8.824,7.176-16,16-16H160z M16,256h17.136c3.576,13.768,15.992,24,30.864,24h96v24h24v16H16V256z
				 M272,480H40c-13.232,0-24-10.768-24-24v-40h16v48h112v-48h16v48h96v-48h16V480z M48,448v-80h80v80H48z M176,416v-16h16v-16h-16
				v-16h64v16h-16v16h16v16h-16v16h16v16h-64v-16h16v-16H176z M272,400h-16v-48h-96v48h-16v-48H32v48H16v-64h256V400z M272,320h-72
				v-16h16h8h32v-16h-32v-16h32v-16h-32v-16h32v-16h-32v-16h32v-16h-32h-8h-16v-32h72V320z M272,144H152v-40h14.472
				c8.512,14.736,24.288,24,41.528,24c26.472,0,48-21.528,48-48c0-23.736-17.336-43.448-40-47.28V16h56V144z M480,456
				c0,13.232-10.768,24-24,24H288v-16h50.816l10.168-8.176C359.584,461.008,371.432,464,384,464c41.408,0,75.568-31.632,79.592-72
				H480V456z M480,376h-16.408c-4.032-40.368-38.184-72-79.592-72c-12.568,0-24.416,2.992-35.008,8.176L338.816,304H288v-16h50.816
				l10.168-8.176C359.584,285.008,371.432,288,384,288c41.408,0,75.568-31.632,79.592-72H480V376z M480,200h-16.408
				c-4.032-40.368-38.184-72-79.592-72c-12.568,0-24.416,2.992-35.008,8.176L338.816,128H288V80h16v32h160V80h16V200z M320,96V48h16
				v48H320z M352,96V48h96v48H352z M480,64h-16V32H304v32h-16V16h168c13.232,0,24,10.768,24,24V64z"/>
			<path d="M384,416c17.648,0,32-14.352,32-32s-14.352-32-32-32s-32,14.352-32,32S366.352,416,384,416z M384,368
				c8.816,0,16,7.176,16,16c0,8.824-7.184,16-16,16c-8.824,0-16-7.176-16-16C368,375.176,375.176,368,384,368z"/>
			<path d="M384,240c17.648,0,32-14.352,32-32s-14.352-32-32-32s-32,14.352-32,32S366.352,240,384,240z M384,192
				c8.816,0,16,7.176,16,16c0,8.824-7.184,16-16,16c-8.824,0-16-7.176-16-16C368,199.176,375.176,192,384,192z"/>
			<rect x="368" y="64" width="24" height="16"/>
			<rect x="408" y="64" width="24" height="16"/>
			<circle cx="208" cy="80" r="8"/>
			<circle cx="80" cy="80" r="8"/>
			<path d="M88,384c-13.232,0-24,10.768-24,24s10.768,24,24,24s24-10.768,24-24S101.232,384,88,384z M88,416c-4.416,0-8-3.584-8-8
				c0-4.416,3.584-8,8-8s8,3.584,8,8C96,412.416,92.416,416,88,416z"/>
		</g>
	</g>
</g>
<g>
</g>
<g>
</g>
<g>
</g>
<g>
</g>
<g>
</g>
<g>
</g>
<g>
</g>
<g>
</g>
<g>
</g>
<g>
</g>
<g>
</g>
<g>
</g>
<g>
</g>
<g>
</g>
<g>
</g>
</svg>
